<svg width="40" height="40" viewBox="0 0 40 40" fill="none" xmlns="http://www.w3.org/2000/svg">
<path d="M18.5569 1.31567L0.203922 21.1806C-0.475818 22.5746 0.543792 22.5746 3.26275 22.5746C5.43792 22.5746 4.16907 21.1806 3.26275 20.4836L16.8576 6.54328C16.9708 16.4177 16.9935 35.9573 16.1778 35.1209C15.1582 34.0754 14.1386 34.4239 16.1778 38.2575C17.8092 41.3243 18.4436 39.5353 18.5569 38.2575V1.31567Z" fill="#F2B47D" style="mix-blend-mode:screen"/>
<path d="M38.9491 23.2716L21.9556 40L21.2819 0.967158C21.2277 -2.16941 24.3347 3.0582 26.3739 6.19477C28.0053 8.70403 25.241 7.24029 23.655 6.19477V35.1209C28.0733 31.4035 36.9099 23.6898 36.9099 22.5746C36.9099 21.1806 36.57 21.1806 38.9491 20.8321C40.8524 20.5533 39.7421 22.3423 38.9491 23.2716Z" fill="#F2B47D" style="mix-blend-mode:screen"/>
<path d="M31.6079 23.6985C30.5203 23.1409 31.8345 22.5368 32.6275 22.3045H8.15688H7.47714H5.77779C6.57082 21.3751 8.49675 19.5861 9.85623 19.8649C11.2157 20.1437 9.96952 20.9104 9.17649 21.2589H35.0066C34.3269 22.3045 32.6955 24.2561 31.6079 23.6985Z" fill="#F2B47D" style="mix-blend-mode:screen"/>
</svg>
